<svg id="Layer_1" data-name="Layer 1" xmlns="http://www.w3.org/2000/svg" viewBox="0 0 128 128"><defs><style>.cls-1{fill:#5246f1;}.cls-2{fill:#fff;}</style></defs><rect class="cls-1" width="128" height="128"/><path class="cls-2" d="M33.74,95.39a1,1,0,0,1-.83-1V67a1,1,0,0,1,1-1H61.36a1,1,0,0,1,1,.84A29.45,29.45,0,0,1,33.74,95.39Z"/><path class="cls-2" d="M67.14,62a.42.42,0,0,1-.3-.38V34.19a.4.4,0,0,1,.38-.4H94.71a.39.39,0,0,1,.38.3A28.85,28.85,0,0,1,67.14,62Z"/><path class="cls-2" d="M67.24,94.21a.39.39,0,0,1-.39-.39h0V66.34a.4.4,0,0,1,.29-.38,28.86,28.86,0,0,1,28,28,.39.39,0,0,1-.38.29Z"/><path class="cls-2" d="M62.33,61.2a1,1,0,0,1-1,.84H33.89a1,1,0,0,1-1-1V33.59a1,1,0,0,1,.83-1A29.44,29.44,0,0,1,62.33,61.2Z"/></svg>